<svg width="28" height="27" viewBox="0 0 28 27" fill="none" xmlns="http://www.w3.org/2000/svg">
<path d="M8.40008 0H19.6001C23.8667 0 27.3334 3.46667 27.3334 7.73333V18.9333C27.3334 20.9843 26.5187 22.9513 25.0684 24.4016C23.6181 25.8519 21.6511 26.6667 19.6001 26.6667H8.40008C4.13341 26.6667 0.666748 23.2 0.666748 18.9333V7.73333C0.666748 5.68233 1.48151 3.71532 2.93179 2.26504C4.38207 0.81476 6.34907 0 8.40008 0ZM8.13341 2.66667C6.86037 2.66667 5.63948 3.17238 4.7393 4.07255C3.83913 4.97273 3.33341 6.19363 3.33341 7.46667V19.2C3.33341 21.8533 5.48008 24 8.13341 24H19.8667C21.1398 24 22.3607 23.4943 23.2609 22.5941C24.161 21.6939 24.6667 20.473 24.6667 19.2V7.46667C24.6667 4.81333 22.5201 2.66667 19.8667 2.66667H8.13341ZM21.0001 4.66667C21.4421 4.66667 21.866 4.84226 22.1786 5.15482C22.4912 5.46738 22.6667 5.89131 22.6667 6.33333C22.6667 6.77536 22.4912 7.19928 22.1786 7.51184C21.866 7.8244 21.4421 8 21.0001 8C20.5581 8 20.1341 7.8244 19.8216 7.51184C19.509 7.19928 19.3334 6.77536 19.3334 6.33333C19.3334 5.89131 19.509 5.46738 19.8216 5.15482C20.1341 4.84226 20.5581 4.66667 21.0001 4.66667ZM14.0001 6.66667C15.7682 6.66667 17.4639 7.36905 18.7141 8.61929C19.9644 9.86953 20.6667 11.5652 20.6667 13.3333C20.6667 15.1014 19.9644 16.7971 18.7141 18.0474C17.4639 19.2976 15.7682 20 14.0001 20C12.232 20 10.5363 19.2976 9.28604 18.0474C8.03579 16.7971 7.33341 15.1014 7.33341 13.3333C7.33341 11.5652 8.03579 9.86953 9.28604 8.61929C10.5363 7.36905 12.232 6.66667 14.0001 6.66667ZM14.0001 9.33333C12.9392 9.33333 11.9218 9.75476 11.1717 10.5049C10.4215 11.2551 10.0001 12.2725 10.0001 13.3333C10.0001 14.3942 10.4215 15.4116 11.1717 16.1618C11.9218 16.9119 12.9392 17.3333 14.0001 17.3333C15.0609 17.3333 16.0784 16.9119 16.8285 16.1618C17.5787 15.4116 18.0001 14.3942 18.0001 13.3333C18.0001 12.2725 17.5787 11.2551 16.8285 10.5049C16.0784 9.75476 15.0609 9.33333 14.0001 9.33333Z" fill="#fff"/>
</svg>
